<svg xmlns="http://www.w3.org/2000/svg"  viewBox="0 0 100 100" width="100px" height="100px"><path fill="#c6dff1" d="M73,80H27c-6.075,0-11-4.925-11-11V31c0-6.075,4.925-11,11-11h46c6.075,0,11,4.925,11,11v38	C84,75.075,79.075,80,73,80z"/><path fill="#1f212b" d="M73,81H27c-6.617,0-12-5.383-12-12V31c0-6.617,5.383-12,12-12h46c6.617,0,12,5.383,12,12v38	C85,75.617,79.617,81,73,81z M27,21c-5.514,0-10,4.486-10,10v38c0,5.514,4.486,10,10,10h46c5.514,0,10-4.486,10-10V31	c0-5.514-4.486-10-10-10H27z"/><path fill="#1f212b" d="M73,76H27c-3.86,0-7-3.14-7-7V31c0-3.86,3.14-7,7-7h41.5c0.276,0,0.5,0.224,0.5,0.5	S68.776,25,68.5,25H27c-3.309,0-6,2.691-6,6v38c0,3.309,2.691,6,6,6h46c3.309,0,6-2.691,6-6V53.5c0-0.276,0.224-0.5,0.5-0.5	s0.5,0.224,0.5,0.5V69C80,72.86,76.86,76,73,76z"/><path fill="#1f212b" d="M79.5,44c-0.276,0-0.5-0.224-0.5-0.5v-2c0-0.276,0.224-0.5,0.5-0.5s0.5,0.224,0.5,0.5v2	C80,43.776,79.776,44,79.5,44z"/><path fill="#1f212b" d="M79.5,51c-0.276,0-0.5-0.224-0.5-0.5v-4c0-0.276,0.224-0.5,0.5-0.5s0.5,0.224,0.5,0.5v4	C80,50.776,79.776,51,79.5,51z"/><path fill="#1f212b" d="M30,59.956c0-0.04,0.019-0.12,0.06-0.239l6.109-19.845C36.344,39.291,36.851,39,37.69,39	s1.346,0.293,1.522,0.878l6.13,19.917c0,0.038,0.005,0.075,0.015,0.112c0.01,0.037,0.015,0.065,0.015,0.084	c0,0.262-0.164,0.495-0.492,0.7C44.552,60.897,44.198,61,43.821,61c-0.477,0-0.776-0.188-0.896-0.564l-1.313-4.421h-7.899	l-1.309,4.406C32.286,60.807,31.984,61,31.495,61c-0.352,0-0.689-0.099-1.012-0.299C30.161,60.503,30,60.253,30,59.956z M34.334,53.925h6.66l-3.321-11.244L34.334,53.925z"/><path fill="#1f212b" d="M48.776,60.105V40.045c0-0.239,0.095-0.443,0.284-0.613c0.189-0.168,0.433-0.253,0.732-0.253h5.642	c1.911,0,3.442,0.518,4.597,1.552c1.154,1.035,1.731,2.666,1.731,4.895v0.268c0,2.23-0.587,3.866-1.761,4.91	c-1.174,1.045-2.736,1.567-4.686,1.567h-4.03v7.732c0,0.279-0.125,0.497-0.373,0.656C50.661,60.921,50.368,61,50.03,61	c-0.338,0-0.632-0.079-0.88-0.239C48.9,60.602,48.776,60.384,48.776,60.105z M51.284,50.284h4.03c1.253,0,2.224-0.354,2.91-1.06	c0.686-0.707,1.03-1.767,1.03-3.18v-0.358c0-1.412-0.344-2.472-1.03-3.179c-0.687-0.706-1.657-1.06-2.91-1.06h-4.03V50.284z"/><path fill="#1f212b" d="M65.492,60.105V40.045c0-0.279,0.124-0.492,0.373-0.642c0.249-0.149,0.542-0.224,0.88-0.224	c0.338,0,0.631,0.075,0.88,0.224C67.875,39.553,68,39.767,68,40.045v20.059c0,0.279-0.125,0.497-0.373,0.656	C67.378,60.921,67.085,61,66.746,61c-0.338,0-0.632-0.079-0.88-0.239C65.617,60.602,65.492,60.384,65.492,60.105z"/></svg>