<svg xmlns="http://www.w3.org/2000/svg"  viewBox="0 0 100 100" width="100px" height="100px"><path fill="#c6dff1" d="M68,86H31c-7.18,0-13-5.82-13-13V41c0-7.18,5.82-13,13-13h37c7.18,0,13,5.82,13,13v32	C81,80.18,75.18,86,68,86z"/><path fill="#fff" d="M31.5,65.5h36v6c0,3.314-2.686,6-6,6h-24c-3.314,0-6-2.686-6-6V65.5z"/><path fill="#8e9cb3" d="M63.5,28h-28v-1.5c0-2.209,1.791-4,4-4h20c2.209,0,4,1.791,4,4V28z"/><path fill="#8e9cb3" d="M81,44v17l7.651-1.478C90.023,59.217,91,58,91,56.593v-8.187c0-1.406-0.977-2.624-2.349-2.929L81,44z"/><path fill="#8e9cb3" d="M18,44v17l-7.651-1.478C8.977,59.217,8,58,8,56.593v-8.187c0-1.406,0.977-2.624,2.349-2.929L18,44z"/><path fill="#f05b6c" d="M58.5,22.5h-18l1.678-9.392c0.187-0.935,1.008-1.608,1.961-1.608H54.86	c0.953,0,1.774,0.673,1.961,1.608L58.5,22.5z"/><circle cx="87" cy="21" r="4.5" fill="#f27c7c"/><circle cx="12" cy="21" r="4.5" fill="#f27c7c"/><circle cx="35" cy="48" r="8.5" fill="#a2b4cc"/><circle cx="35" cy="48" r="3.5" fill="#fef6aa"/><circle cx="64" cy="48" r="8.5" fill="#a2b4cc"/><circle cx="64" cy="48" r="3.5" fill="#fef6aa"/><path fill="#1f212b" d="M68,87H31c-7.72,0-14-6.28-14-14V41c0-7.72,6.28-14,14-14h37c7.72,0,14,6.28,14,14v32	C82,80.72,75.72,87,68,87z M31,29c-6.617,0-12,5.383-12,12v32c0,6.617,5.383,12,12,12h37c6.617,0,12-5.383,12-12V41	c0-6.617-5.383-12-12-12H31z"/><path fill="#1f212b" d="M35,57c-4.963,0-9-4.038-9-9s4.037-9,9-9s9,4.038,9,9S39.963,57,35,57z M35,40c-4.411,0-8,3.589-8,8	s3.589,8,8,8s8-3.589,8-8S39.411,40,35,40z"/><path fill="#1f212b" d="M35,52c-2.206,0-4-1.794-4-4s1.794-4,4-4s4,1.794,4,4S37.206,52,35,52z M35,45c-1.654,0-3,1.346-3,3	s1.346,3,3,3s3-1.346,3-3S36.654,45,35,45z"/><path fill="#1f212b" d="M64,57c-4.963,0-9-4.038-9-9s4.037-9,9-9s9,4.038,9,9S68.963,57,64,57z M64,40c-4.411,0-8,3.589-8,8	s3.589,8,8,8s8-3.589,8-8S68.411,40,64,40z"/><path fill="#1f212b" d="M64,52c-2.206,0-4-1.794-4-4s1.794-4,4-4s4,1.794,4,4S66.206,52,64,52z M64,45c-1.654,0-3,1.346-3,3	s1.346,3,3,3s3-1.346,3-3S65.654,45,64,45z"/><path fill="#1f212b" d="M63.5,28.5h-28c-0.276,0-0.5-0.224-0.5-0.5v-1.5c0-2.481,2.019-4.5,4.5-4.5h20	c2.481,0,4.5,2.019,4.5,4.5V28C64,28.276,63.776,28.5,63.5,28.5z M36,27.5h27v-1c0-1.93-1.57-3.5-3.5-3.5h-20	c-1.93,0-3.5,1.57-3.5,3.5V27.5z"/><path fill="#1f212b" d="M58.5,23h-18c-0.148,0-0.288-0.065-0.384-0.179c-0.095-0.113-0.135-0.263-0.108-0.409l1.679-9.392	C41.921,11.845,42.951,11,44.14,11H54.86c1.188,0,2.219,0.845,2.451,2.01l1.681,9.402c0.026,0.146-0.014,0.295-0.108,0.409	C58.788,22.935,58.648,23,58.5,23z M41.098,22h16.805l-1.573-8.804C56.191,12.507,55.573,12,54.86,12H44.14	c-0.713,0-1.331,0.507-1.471,1.206L41.098,22z"/><path fill="#1f212b" d="M61.5,78h-24c-3.584,0-6.5-2.916-6.5-6.5v-6c0-0.276,0.224-0.5,0.5-0.5h36c0.276,0,0.5,0.224,0.5,0.5	v6C68,75.084,65.084,78,61.5,78z M32,66v5.5c0,3.033,2.468,5.5,5.5,5.5h24c3.032,0,5.5-2.467,5.5-5.5V66H32z"/><path fill="#1f212b" d="M81,62c-0.23,0-0.456-0.08-0.637-0.229C80.133,61.581,80,61.298,80,61V44	c0-0.298,0.133-0.581,0.363-0.771c0.23-0.19,0.538-0.267,0.826-0.21l7.65,1.478c1.872,0.416,3.16,2.021,3.16,3.911v8.187	c0,1.889-1.288,3.495-3.133,3.905l-7.678,1.484C81.127,61.994,81.063,62,81,62z M82,45.211v14.577l6.461-1.248	C89.355,58.341,90,57.538,90,56.593v-8.187c0-0.945-0.645-1.748-1.566-1.953L82,45.211z"/><rect width="2" height="19.5" x="86" y="25.5" fill="#1f212b"/><path fill="#1f212b" d="M87,26c-2.757,0-5-2.243-5-5s2.243-5,5-5s5,2.243,5,5S89.757,26,87,26z M87,17c-2.206,0-4,1.794-4,4	s1.794,4,4,4s4-1.794,4-4S89.206,17,87,17z"/><path fill="#1f212b" d="M18,62c-0.063,0-0.127-0.006-0.189-0.018l-7.65-1.478C8.288,60.088,7,58.482,7,56.593v-8.187	c0-1.889,1.288-3.495,3.133-3.905l7.678-1.484c0.29-0.057,0.596,0.021,0.826,0.21C18.867,43.419,19,43.702,19,44v17	c0,0.298-0.133,0.581-0.363,0.771C18.456,61.92,18.23,62,18,62z M17,45.212l-6.461,1.248C9.645,46.659,9,47.462,9,48.407v8.187	c0,0.945,0.645,1.748,1.566,1.953L17,59.789V45.212z"/><rect width="2" height="19.5" x="11" y="25.5" fill="#1f212b"/><path fill="#1f212b" d="M12,26c-2.757,0-5-2.243-5-5s2.243-5,5-5s5,2.243,5,5S14.757,26,12,26z M12,17c-2.206,0-4,1.794-4,4	s1.794,4,4,4s4-1.794,4-4S14.206,17,12,17z"/><path fill="#1f212b" d="M49.5,74c-0.276,0-0.5-0.224-0.5-0.5v-8c0-0.276,0.224-0.5,0.5-0.5s0.5,0.224,0.5,0.5v8	C50,73.776,49.776,74,49.5,74z"/><path fill="#1f212b" d="M55.5,69c-0.276,0-0.5-0.224-0.5-0.5v-3c0-0.276,0.224-0.5,0.5-0.5s0.5,0.224,0.5,0.5v3	C56,68.776,55.776,69,55.5,69z"/><path fill="#1f212b" d="M43.5,78c-0.276,0-0.5-0.224-0.5-0.5v-12c0-0.276,0.224-0.5,0.5-0.5s0.5,0.224,0.5,0.5v12	C44,77.776,43.776,78,43.5,78z"/><path fill="#1f212b" d="M37.5,70c-0.276,0-0.5-0.224-0.5-0.5v-4c0-0.276,0.224-0.5,0.5-0.5s0.5,0.224,0.5,0.5v4	C38,69.776,37.776,70,37.5,70z"/><path fill="#1f212b" d="M61.5,78c-0.276,0-0.5-0.224-0.5-0.5v-12c0-0.276,0.224-0.5,0.5-0.5s0.5,0.224,0.5,0.5v12	C62,77.776,61.776,78,61.5,78z"/><path fill="#1f212b" d="M37.5,78c-0.276,0-0.5-0.224-0.5-0.5v-6c0-0.276,0.224-0.5,0.5-0.5s0.5,0.224,0.5,0.5v6	C38,77.776,37.776,78,37.5,78z"/><path fill="#1f212b" d="M49.5,78c-0.276,0-0.5-0.224-0.5-0.5v-2c0-0.276,0.224-0.5,0.5-0.5s0.5,0.224,0.5,0.5v2	C50,77.776,49.776,78,49.5,78z"/><path fill="#1f212b" d="M55.5,78c-0.276,0-0.5-0.224-0.5-0.5v-7c0-0.276,0.224-0.5,0.5-0.5s0.5,0.224,0.5,0.5v7	C56,77.776,55.776,78,55.5,78z"/></svg>