<svg xmlns="http://www.w3.org/2000/svg"  viewBox="0 0 100 100" width="100px" height="100px"><path fill="#a1d3a2" d="M42.011,22.567C42.538,18.294,45.912,15,50.001,15c4.114,0,7.508,3.336,7.999,7.65c0,0-4,2.35-8,2.35S42.011,22.567,42.011,22.567z"/><path fill="#b3b2c3" d="M26,38c0,3,0,15.488,0,22.5C26,75.517,35,86,50,86s24-10.483,24-25.5c0-7.955,0-22.5,0-22.5H26z"/><path fill="#a1d3a2" d="M74 38c0 0 0 14.54 0 22.5 0 14.51-8.4 24.72-22.5 25.46V38H74zM26 38.04c0 0 0 14.54 0 22.5C26 75.05 34.4 85.26 48.5 86V38.04H26z"/><path fill="#78a2d2" d="M75,36c0,4-8.767,11-25,11s-25-7-25-11s12-11,17-13c2,0.112,4,2,8,2s7-1.888,8-2C63,25,75,32,75,36z"/><path fill="#1f212b" d="M89,56H75v-9.968c0.057,0.001,0.108,0.003,0.171,0.003c1.392,0,4.342-0.334,7.187-2.799C86.766,39.417,89,32.271,89,22c0-0.552-0.447-1-1-1s-1,0.448-1,1c0,9.494-2.044,16.301-5.91,19.688c-2.547,2.231-5.151,2.378-6.09,2.348V39c0-0.017-0.009-0.031-0.01-0.047C75.655,37.938,76,36.935,76,36c0-4.838-12.718-11.783-17.036-13.678c-0.642-4.761-4.456-8.327-8.963-8.327c-4.491,0-8.323,3.572-8.967,8.328C36.714,24.219,24,31.163,24,36c0,0.935,0.345,1.938,1.01,2.953C25.009,38.969,25,38.983,25,39v5.034c-0.926,0.028-3.518-0.117-6.048-2.31C15.059,38.35,13,31.529,13,22c0-0.552-0.447-1-1-1s-1,0.448-1,1c0,10.271,2.234,17.417,6.643,21.236c2.845,2.465,5.796,2.799,7.187,2.799c0.063,0,0.114-0.002,0.171-0.003V56H11c-0.553,0-1,0.448-1,1s0.447,1,1,1h14v2.5c0,2.741,0.291,5.312,0.838,7.699C22.306,68.972,11,72.502,11,86c0,0.552,0.447,1,1,1s1-0.448,1-1c0-12.348,10.355-15.287,13.341-15.877C29.512,80.62,38.108,87,50,87s20.488-6.38,23.659-16.877C76.645,70.713,87,73.652,87,86c0,0.552,0.447,1,1,1s1-0.448,1-1c0-13.498-11.306-17.028-14.838-17.801C74.709,65.812,75,63.241,75,60.5V58h14c0.553,0,1-0.448,1-1S89.553,56,89,56z M50.001,16.005c3.4,0,6.296,2.664,6.924,6.271c-0.213,0.079-0.439,0.168-0.698,0.272C54.789,23.126,52.615,24,50,24c-2.219,0-3.76-0.629-5.119-1.184c-0.608-0.248-1.196-0.478-1.788-0.634C43.756,18.628,46.643,16.005,50.001,16.005z M42.149,24.019c0.576,0.079,1.23,0.346,1.976,0.649C45.579,25.262,47.39,26,50,26c3.002,0,5.487-0.999,6.973-1.596c0.321-0.129,0.7-0.281,0.942-0.359C64.106,26.599,74,33.104,74,36c0,3.394-8.471,10-24,10s-24-6.606-24-10C26,33.093,35.962,26.554,42.149,24.019z M27,60.5V41.191c3.819,3.391,11.13,6.404,21,6.768v36.954c-2.523-0.174-4.864-0.676-7-1.48V78.5c0-0.276-0.224-0.5-0.5-0.5S40,78.224,40,78.5v4.526c-2.268-0.985-4.275-2.33-6-3.989V59.5c0-0.276-0.224-0.5-0.5-0.5S33,59.224,33,59.5v18.522C29.167,73.772,27,67.771,27,60.5z M49,84.956v-36.97C49.332,47.992,49.663,48,50,48s0.668-0.008,1-0.014v36.97C50.665,84.968,50.341,85,50,85S49.335,84.968,49,84.956z M67,78.022V62.5c0-0.276-0.224-0.5-0.5-0.5S66,62.224,66,62.5v16.537c-1.725,1.659-3.732,3.004-6,3.989V57.5c0-0.276-0.224-0.5-0.5-0.5S59,57.224,59,57.5v25.933c-2.136,0.804-4.477,1.306-7,1.48V47.959c9.87-0.363,17.181-3.377,21-6.768V60.5C73,67.771,70.833,73.772,67,78.022z"/><path fill="#1f212b" d="M40.5 72c.276 0 .5-.224.5-.5v-20c0-.276-.224-.5-.5-.5S40 51.224 40 51.5v20C40 71.776 40.224 72 40.5 72zM40.5 77c.276 0 .5-.224.5-.5v-3c0-.276-.224-.5-.5-.5S40 73.224 40 73.5v3C40 76.776 40.224 77 40.5 77zM59.5 51c-.276 0-.5.224-.5.5v4c0 .276.224.5.5.5s.5-.224.5-.5v-4C60 51.224 59.776 51 59.5 51zM66.5 58c-.276 0-.5.224-.5.5v2c0 .276.224.5.5.5s.5-.224.5-.5v-2C67 58.224 66.776 58 66.5 58zM66.5 55c-.276 0-.5.224-.5.5v1c0 .276.224.5.5.5s.5-.224.5-.5v-1C67 55.224 66.776 55 66.5 55zM33.5 58c.276 0 .5-.224.5-.5v-2c0-.276-.224-.5-.5-.5S33 55.224 33 55.5v2C33 57.776 33.224 58 33.5 58z"/></svg>