<svg xmlns="http://www.w3.org/2000/svg"  viewBox="0 0 100 100" width="100px" height="100px"><path fill="#fefdef" d="M75,82H25c-3.85,0-7-3.15-7-7V25c0-3.85,3.15-7,7-7h50c3.85,0,7,3.15,7,7v50 C82,78.85,78.85,82,75,82z"/><path fill="#ceccbe" d="M82,29v-4c0-3.85-3.15-7-7-7H25c-3.85,0-7,3.15-7,7v4H82z"/><path fill="#ceccbe" d="M18,74v1c0,3.85,3.15,7,7,7h50c3.85,0,7-3.15,7-7v-1H18z"/><g><path fill="#1f212b" d="M75,17H25c-4.411,0-8,3.589-8,8v50c0,4.411,3.589,8,8,8h50c4.411,0,8-3.589,8-8V25 C83,20.589,79.411,17,75,17z M75,81H25c-3.309,0-6-2.691-6-6h8.5c0.277,0,0.5-0.224,0.5-0.5S27.776,74,27.5,74H19V29h40.5 c0.277,0,0.5-0.224,0.5-0.5S59.776,28,59.5,28H19v-3c0-3.309,2.691-6,6-6h50c3.309,0,6,2.691,6,6v3h-7.5 c-0.276,0-0.5,0.224-0.5,0.5s0.224,0.5,0.5,0.5H81v46C81,78.309,78.309,81,75,81z"/><path fill="#1f212b" d="M62.5,29h6c0.277,0,0.5-0.224,0.5-0.5S68.776,28,68.5,28h-6c-0.276,0-0.5,0.224-0.5,0.5 S62.224,29,62.5,29z"/><path fill="#1f212b" d="M30.5,74c-0.276,0-0.5,0.224-0.5,0.5s0.224,0.5,0.5,0.5H82v-1H30.5z"/><path fill="#1f212b" d="M34,58.742c0-0.378,0.145-0.663,0.436-0.853l9.433-6.37l-9.433-6.41 C34.145,44.921,34,44.636,34,44.258c0-0.325,0.132-0.616,0.397-0.872C34.66,43.128,34.937,43,35.229,43 c0.184,0,0.343,0.054,0.476,0.162l10.661,7.221C46.789,50.682,47,51.06,47,51.52s-0.211,0.826-0.634,1.096l-10.661,7.221 C35.571,59.946,35.413,60,35.229,60c-0.291,0-0.568-0.128-0.832-0.385C34.132,59.358,34,59.066,34,58.742z"/><path fill="#1f212b" d="M51,58.884c0-0.347,0.095-0.632,0.283-0.857c0.19-0.226,0.432-0.339,0.731-0.339h12.972 c0.27,0,0.506,0.113,0.71,0.339C65.898,58.253,66,58.538,66,58.884c0,0.319-0.102,0.583-0.304,0.797 C65.493,59.893,65.256,60,64.986,60H52.014C51.339,60,51,59.628,51,58.884z"/></g></svg>