<svg xmlns="http://www.w3.org/2000/svg"  viewBox="0 0 100 100" width="100px" height="100px"><path fill="#fefdef" d="M15 22H85V78H15z"/><path fill="#78a2d2" d="M21 47H29V55H21zM21 62H29V70H21zM21 32H29V40H21zM54 47H62V55H54zM54 62H62V70H54zM54 32H62V40H54z"/><path fill="#1f212b" d="M85,79H15c-0.552,0-1-0.448-1-1V22c0-0.552,0.448-1,1-1h70c0.553,0,1,0.448,1,1v56 C86,78.552,85.553,79,85,79z M16,77h68V23H16V77z"/><path fill="#1f212b" d="M23.5 27h-8c-.276 0-.5-.224-.5-.5s.224-.5.5-.5h8c.276 0 .5.224.5.5S23.776 27 23.5 27zM28.5 27h-2c-.276 0-.5-.224-.5-.5s.224-.5.5-.5h2c.276 0 .5.224.5.5S28.776 27 28.5 27zM84.5 27h-53c-.276 0-.5-.224-.5-.5s.224-.5.5-.5h53c.276 0 .5.224.5.5S84.776 27 84.5 27zM29 56h-8c-.552 0-1-.448-1-1v-8c0-.552.448-1 1-1h8c.552 0 1 .448 1 1v8C30 55.552 29.552 56 29 56zM22 54h6v-6h-6V54zM29 71h-8c-.552 0-1-.448-1-1v-8c0-.552.448-1 1-1h8c.552 0 1 .448 1 1v8C30 70.552 29.552 71 29 71zM22 69h6v-6h-6V69zM29 41h-8c-.552 0-1-.448-1-1v-8c0-.552.448-1 1-1h8c.552 0 1 .448 1 1v8C30 40.552 29.552 41 29 41zM22 39h6v-6h-6V39zM62 56h-8c-.553 0-1-.448-1-1v-8c0-.552.447-1 1-1h8c.553 0 1 .448 1 1v8C63 55.552 62.553 56 62 56zM55 54h6v-6h-6V54zM62 71h-8c-.553 0-1-.448-1-1v-8c0-.552.447-1 1-1h8c.553 0 1 .448 1 1v8C63 70.552 62.553 71 62 71zM55 69h6v-6h-6V69zM62 41h-8c-.553 0-1-.448-1-1v-8c0-.552.447-1 1-1h8c.553 0 1 .448 1 1v8C63 40.552 62.553 41 62 41zM55 39h6v-6h-6V39zM46.5 35h-14c-.276 0-.5-.224-.5-.5s.224-.5.5-.5h14c.276 0 .5.224.5.5S46.776 35 46.5 35zM42.5 38h-10c-.276 0-.5-.224-.5-.5s.224-.5.5-.5h10c.276 0 .5.224.5.5S42.776 38 42.5 38zM44.5 50h-12c-.276 0-.5-.224-.5-.5s.224-.5.5-.5h12c.276 0 .5.224.5.5S44.776 50 44.5 50zM45.5 53h-13c-.276 0-.5-.224-.5-.5s.224-.5.5-.5h13c.276 0 .5.224.5.5S45.776 53 45.5 53zM41.5 65h-9c-.276 0-.5-.224-.5-.5s.224-.5.5-.5h9c.276 0 .5.224.5.5S41.776 65 41.5 65zM46.5 68h-14c-.276 0-.5-.224-.5-.5s.224-.5.5-.5h14c.276 0 .5.224.5.5S46.776 68 46.5 68zM78.5 35h-13c-.276 0-.5-.224-.5-.5s.224-.5.5-.5h13c.276 0 .5.224.5.5S78.776 35 78.5 35zM72.5 38h-7c-.276 0-.5-.224-.5-.5s.224-.5.5-.5h7c.276 0 .5.224.5.5S72.776 38 72.5 38zM78.5 50h-13c-.276 0-.5-.224-.5-.5s.224-.5.5-.5h13c.276 0 .5.224.5.5S78.776 50 78.5 50zM75.5 53h-10c-.276 0-.5-.224-.5-.5s.224-.5.5-.5h10c.276 0 .5.224.5.5S75.776 53 75.5 53zM76.5 65h-11c-.276 0-.5-.224-.5-.5s.224-.5.5-.5h11c.276 0 .5.224.5.5S76.776 65 76.5 65zM79.5 68h-14c-.276 0-.5-.224-.5-.5s.224-.5.5-.5h14c.276 0 .5.224.5.5S79.776 68 79.5 68z"/></svg>