<svg xmlns="http://www.w3.org/2000/svg"  viewBox="0 0 100 100" width="100px" height="100px"><path fill="#ead6c7" d="M59,87V76h6c5.523,0,10-4.477,10-10v-8l6.63-2.947c1.262-0.561,1.751-2.097,1.046-3.284 l-6.507-10.952c-0.239-0.433-0.387-0.908-0.455-1.398C73.726,25.059,61.407,14,46.5,14l0,0C30.208,14,17,27.208,17,43.5 c0,1.531,0.123,3.032,0.348,4.5h0.019c0.652,4.266,2.2,8.235,4.475,11.691C25.139,64.696,27,70.506,27,76.499V87H59z"/><path fill="#1f212b" d="M59,88c-0.552,0-1-0.447-1-1V76c0-0.553,0.448-1,1-1h6c4.962,0,9-4.037,9-9v-8 c0-0.396,0.233-0.753,0.594-0.914l6.63-2.947c0.346-0.153,0.599-0.437,0.714-0.797c0.115-0.359,0.072-0.736-0.122-1.062 l-6.507-10.952c-0.307-0.556-0.498-1.143-0.585-1.772C72.786,25.557,60.652,15,46.5,15C30.785,15,18,27.785,18,43.5 c0,1.367,0.104,2.77,0.31,4.169c0.021,0.058,0.036,0.118,0.045,0.18c0.625,4.087,2.08,7.887,4.322,11.293 C26.16,64.428,28,70.43,28,76.499V87c0,0.553-0.448,1-1,1s-1-0.447-1-1V76.499c0-5.678-1.727-11.299-4.993-16.258 c-2.369-3.597-3.916-7.602-4.6-11.905c-0.022-0.059-0.038-0.121-0.047-0.185C16.121,46.592,16,45.026,16,43.5 C16,26.683,29.682,13,46.5,13c15.145,0,28.13,11.299,30.205,26.282c0.053,0.386,0.167,0.74,0.34,1.053l6.491,10.924 c0.481,0.811,0.594,1.791,0.308,2.69c-0.286,0.898-0.945,1.634-1.807,2.018L76,58.649V66c0,6.065-4.935,11-11,11h-5v10 C60,87.553,59.552,88,59,88z"/><path fill="#1f212b" d="M59.5,76h-9c-0.276,0-0.5-0.224-0.5-0.5s0.224-0.5,0.5-0.5h9c0.276,0,0.5,0.224,0.5,0.5 S59.776,76,59.5,76z"/><path fill="#1f212b" d="M48.5,76h-2c-0.276,0-0.5-0.224-0.5-0.5s0.224-0.5,0.5-0.5h2c0.276,0,0.5,0.224,0.5,0.5 S48.776,76,48.5,76z"/><path fill="none" stroke="#25262f" stroke-linecap="round" stroke-linejoin="round" stroke-miterlimit="10" stroke-width="2" d="M37.242,31.718c-2.645,2.645-5.29,5.29-7.934,7.934c2.645,2.645,5.29,5.29,7.934,7.934"/><path fill="none" stroke="#25262f" stroke-linecap="round" stroke-linejoin="round" stroke-miterlimit="10" stroke-width="2" d="M56.066,31.718c2.645,2.645,5.29,5.29,7.934,7.934c-2.645,2.645-5.29,5.29-7.934,7.934"/><path fill="none" stroke="#25262f" stroke-linecap="round" stroke-linejoin="round" stroke-miterlimit="10" stroke-width="2" d="M49.983,28c-2.287,7.981-4.575,15.962-6.862,23.943"/></svg>