<svg xmlns="http://www.w3.org/2000/svg"  viewBox="0 0 100 100" width="100px" height="100px"><path fill="#fefdef" d="M74,81H26c-3.85,0-7-3.15-7-7V26c0-3.85,3.15-7,7-7h48c3.85,0,7,3.15,7,7v48C81,77.85,77.85,81,74,81	z"/><path fill="#ceccbe" d="M81,30v-4c0-3.85-3.15-7-7-7H26c-3.85,0-7,3.15-7,7v4H81z"/><path fill="#ceccbe" d="M19,73v1c0,3.85,3.15,7,7,7h48c3.85,0,7-3.15,7-7v-1H19z"/><path fill="#1f212b" d="M74,18H26c-4.411,0-8,3.589-8,8v48c0,4.411,3.589,8,8,8h48c4.411,0,8-3.589,8-8V26	C82,21.589,78.411,18,74,18z M74,80H26c-3.309,0-6-2.691-6-6h8.5c0.277,0,0.5-0.224,0.5-0.5S28.776,73,28.5,73H20V30h38.5	c0.277,0,0.5-0.224,0.5-0.5S58.776,29,58.5,29H20v-3c0-3.309,2.691-6,6-6h48c3.309,0,6,2.691,6,6v3h-7.5c-0.276,0-0.5,0.224-0.5,0.5	s0.224,0.5,0.5,0.5H80v44C80,77.309,77.309,80,74,80z"/><path fill="#1f212b" d="M61.5,30h6c0.277,0,0.5-0.224,0.5-0.5S67.776,29,67.5,29h-6c-0.276,0-0.5,0.224-0.5,0.5	S61.224,30,61.5,30z"/><path fill="#1f212b" d="M71.28,80.562c-0.128,0-0.256-0.049-0.354-0.146l-2.828-2.829c-0.195-0.195-0.195-0.512,0-0.707	s0.512-0.195,0.707,0l2.828,2.829c0.195,0.195,0.195,0.512,0,0.707C71.536,80.514,71.408,80.562,71.28,80.562z"/><polygon fill="#1f212b" points="67.43,79.67 68.844,81.084 67.1,81.414"/><path fill="#1f212b" d="M28.5,42c-0.132,0-0.26-0.053-0.354-0.146l-3-3c-0.195-0.195-0.195-0.512,0-0.707	s0.512-0.195,0.707,0l2.613,2.613l4.649-5.58c0.177-0.211,0.492-0.241,0.705-0.063c0.212,0.177,0.241,0.492,0.064,0.704l-5,6	c-0.09,0.107-0.221,0.173-0.362,0.179C28.515,42,28.507,42,28.5,42z"/><path fill="#1f212b" d="M65.5,39h-30c-0.276,0-0.5-0.224-0.5-0.5s0.224-0.5,0.5-0.5h30c0.276,0,0.5,0.224,0.5,0.5	S65.776,39,65.5,39z"/><path fill="#1f212b" d="M74.5,39h-6c-0.276,0-0.5-0.224-0.5-0.5s0.224-0.5,0.5-0.5h6c0.276,0,0.5,0.224,0.5,0.5	S74.776,39,74.5,39z"/><path fill="#1f212b" d="M28.5,54c-0.132,0-0.26-0.053-0.354-0.146l-3-3c-0.195-0.195-0.195-0.512,0-0.707	s0.512-0.195,0.707,0l2.613,2.613l4.649-5.58c0.177-0.211,0.492-0.241,0.705-0.063c0.212,0.177,0.241,0.492,0.064,0.704l-5,6	c-0.09,0.107-0.221,0.173-0.362,0.179C28.515,54,28.507,54,28.5,54z"/><path fill="#1f212b" d="M55.5,51h-20c-0.276,0-0.5-0.224-0.5-0.5s0.224-0.5,0.5-0.5h20c0.276,0,0.5,0.224,0.5,0.5	S55.776,51,55.5,51z"/><path fill="#1f212b" d="M63.5,51h-5c-0.276,0-0.5-0.224-0.5-0.5s0.224-0.5,0.5-0.5h5c0.276,0,0.5,0.224,0.5,0.5	S63.776,51,63.5,51z"/><path fill="#1f212b" d="M74.5,51h-8c-0.276,0-0.5-0.224-0.5-0.5s0.224-0.5,0.5-0.5h8c0.276,0,0.5,0.224,0.5,0.5	S74.776,51,74.5,51z"/><path fill="#1f212b" d="M28.5,66c-0.132,0-0.26-0.053-0.354-0.146l-3-3c-0.195-0.195-0.195-0.512,0-0.707	s0.512-0.195,0.707,0l2.613,2.613l4.649-5.58c0.177-0.212,0.492-0.241,0.705-0.063c0.212,0.177,0.241,0.492,0.064,0.704l-5,6	c-0.09,0.107-0.221,0.173-0.362,0.179C28.515,66,28.507,66,28.5,66z"/><path fill="#1f212b" d="M60.5,63h-25c-0.276,0-0.5-0.224-0.5-0.5s0.224-0.5,0.5-0.5h25c0.276,0,0.5,0.224,0.5,0.5	S60.776,63,60.5,63z"/><circle cx="74.5" cy="74.5" r="14.5" fill="#fef6aa"/><path fill="#fcba7f" d="M67.489,81l0.773-3.576l10.871-10.871c0,0,1.045-0.338,2.106,0.723	c1.061,1.061,0.723,2.106,0.723,2.106L71.09,80.253L67.489,81z"/><path fill="#f37e98" d="M77.686,68l1.447-1.447c0,0,1.045-0.338,2.106,0.723s0.723,2.106,0.723,2.106l-1.473,1.472L77.686,68	z"/><path fill="#1f212b" d="M74.5,90C65.953,90,59,83.047,59,74.5S65.953,59,74.5,59S90,65.953,90,74.5S83.047,90,74.5,90z M74.5,61C67.056,61,61,67.056,61,74.5S67.056,88,74.5,88S88,81.944,88,74.5S81.944,61,74.5,61z"/><path fill="#1f212b" d="M67.366,82.025c-0.228,0-0.449-0.09-0.618-0.259c-0.241-0.24-0.321-0.587-0.21-0.906l0,0l1.225-3.522	c0.041-0.12,0.111-0.234,0.204-0.326L78.779,66.2c0.056-0.056,0.125-0.098,0.2-0.122c0.054-0.02,1.352-0.417,2.613,0.845	c1.262,1.262,0.862,2.558,0.845,2.613c-0.024,0.075-0.066,0.144-0.122,0.2l-10.871,10.87c-0.053,0.053-0.118,0.094-0.189,0.119	l-3.601,1.252C67.559,82.009,67.462,82.025,67.366,82.025z M67.482,81.188L67.482,81.188L67.482,81.188z M79.381,67.012	L68.674,77.719l-1.109,3.229l3.253-1.131l10.686-10.686c0.03-0.231,0.034-0.85-0.619-1.502C80.235,66.979,79.62,66.98,79.381,67.012	z"/><path fill="#1f212b" d="M80.578,71.265c-0.128,0-0.256-0.049-0.354-0.146l-2.828-2.829c-0.195-0.195-0.195-0.512,0-0.707	s0.512-0.195,0.707,0l2.829,2.829c0.195,0.195,0.195,0.512,0,0.707C80.834,71.216,80.706,71.265,80.578,71.265z"/><path fill="#1f212b" d="M31.5,73c-0.276,0-0.5,0.224-0.5,0.5s0.224,0.5,0.5,0.5h28.525c0.011-0.335,0.018-0.671,0.052-1H31.5	z"/></svg>