<svg xmlns="http://www.w3.org/2000/svg"  viewBox="0 0 100 100" width="100px" height="100px"><path fill="#f8e55b" d="M69.654,81.961h-39c-6.6,0-12-5.4-12-12v-39c0-6.6,5.4-12,12-12h39c6.6,0,12,5.4,12,12v39C81.654,76.561,76.254,81.961,69.654,81.961z"/><path fill="#1f212b" d="M69.654,82.961h-39c-7.168,0-13-5.832-13-13v-39c0-7.168,5.832-13,13-13h39c7.168,0,13,5.832,13,13v39C82.654,77.129,76.822,82.961,69.654,82.961z M30.654,19.961c-6.065,0-11,4.935-11,11v39c0,6.065,4.935,11,11,11h39c6.065,0,11-4.935,11-11v-39c0-6.065-4.935-11-11-11H30.654z"/><path fill="#f8e55b" d="M77.154,48.461v18.663c0,5.685-4.652,10.337-10.337,10.337H33.491c-5.685,0-10.337-4.652-10.337-10.337V33.798c0-5.685,4.652-10.337,10.337-10.337h33.663"/><path fill="#1f212b" d="M66.817 77.961H33.49c-5.976 0-10.837-4.861-10.837-10.837V33.798c0-5.976 4.861-10.837 10.837-10.837h33.663c.276 0 .5.224.5.5s-.224.5-.5.5H33.49c-5.424 0-9.837 4.413-9.837 9.837v33.326c0 5.424 4.413 9.837 9.837 9.837h33.326c5.424 0 9.837-4.413 9.837-9.837V48.461c0-.276.224-.5.5-.5s.5.224.5.5v18.663C77.654 73.099 72.792 77.961 66.817 77.961zM77.154 45.961c-.276 0-.5-.224-.5-.5v-4c0-.276.224-.5.5-.5s.5.224.5.5v4C77.654 45.737 77.43 45.961 77.154 45.961zM77.154 39.961c-.276 0-.5-.224-.5-.5v-2c0-.276.224-.5.5-.5s.5.224.5.5v2C77.654 39.737 77.43 39.961 77.154 39.961z"/><path fill="#fdfcee" d="M47.78,55.898c-0.03-0.149-0.045-0.298-0.045-0.448c0-0.149,0-0.298,0-0.448c0-1.166,0.157-2.205,0.471-3.117c0.314-0.912,0.702-1.741,1.166-2.489c0.463-0.747,0.971-1.45,1.525-2.108c0.553-0.657,1.061-1.323,1.525-1.996c0.463-0.673,0.852-1.39,1.166-2.152c0.314-0.763,0.471-1.622,0.471-2.579c0-1.375-0.419-2.526-1.256-3.453c-0.838-0.927-2.078-1.39-3.722-1.39c-1.017,0-1.861,0.075-2.534,0.224c-0.673,0.15-1.233,0.337-1.682,0.561c-0.448,0.224-0.807,0.486-1.076,0.785c-0.269,0.299-0.509,0.599-0.718,0.897c0.718,0.03,1.323,0.307,1.816,0.83c0.494,0.523,0.74,1.188,0.74,1.996c0,0.897-0.262,1.675-0.785,2.332c-0.523,0.658-1.383,0.987-2.579,0.987c-0.957,0-1.727-0.337-2.31-1.009c-0.583-0.673-0.875-1.517-0.875-2.534c0-0.837,0.171-1.719,0.514-2.646c0.343-0.926,0.94-1.786,1.791-2.579c0.851-0.792,1.977-1.45,3.379-1.973c1.402-0.523,3.178-0.785,5.327-0.785c1.492,0,2.894,0.112,4.207,0.337c1.314,0.224,2.462,0.628,3.446,1.211c0.985,0.583,1.76,1.361,2.327,2.332c0.567,0.972,0.851,2.191,0.851,3.656c0,1.346-0.238,2.489-0.713,3.431c-0.475,0.942-1.077,1.779-1.804,2.512c-0.728,0.733-1.515,1.406-2.362,2.018c-0.847,0.613-1.658,1.271-2.434,1.973c-0.775,0.703-1.44,1.503-1.993,2.399c-0.553,0.897-0.89,1.973-1.009,3.229H47.78z M52.938,63.657c0,0.986-0.344,1.824-1.031,2.512c-0.689,0.688-1.525,1.031-2.512,1.031c-0.957,0-1.787-0.344-2.489-1.031c-0.703-0.688-1.054-1.525-1.054-2.512c0-0.957,0.351-1.786,1.054-2.489c0.702-0.702,1.532-1.054,2.489-1.054c0.987,0,1.824,0.352,2.512,1.054C52.594,61.871,52.938,62.701,52.938,63.657z"/><path fill="#1f212b" d="M49.394,67.7c-1.088,0-2.043-0.395-2.839-1.174c-0.799-0.782-1.204-1.747-1.204-2.869c0-1.089,0.404-2.046,1.2-2.843c0.797-0.797,1.754-1.201,2.843-1.201c1.121,0,2.086,0.405,2.869,1.204c0.779,0.797,1.174,1.752,1.174,2.839c0,1.12-0.396,2.084-1.178,2.865C51.477,67.304,50.513,67.7,49.394,67.7z M49.394,60.614c-0.826,0-1.524,0.297-2.136,0.908c-0.61,0.611-0.907,1.31-0.907,2.136c0,0.855,0.295,1.56,0.903,2.154c0.611,0.598,1.311,0.889,2.14,0.889c0.856,0,1.562-0.29,2.159-0.885c0.595-0.595,0.885-1.301,0.885-2.158c0-0.828-0.291-1.528-0.889-2.14C50.953,60.91,50.248,60.614,49.394,60.614z M50.606,56.398H47.78c-0.238,0-0.442-0.167-0.49-0.4c-0.037-0.182-0.055-0.365-0.055-0.548v-0.448c0-1.215,0.167-2.318,0.498-3.28c0.326-0.946,0.735-1.817,1.214-2.59c0.474-0.765,1.001-1.494,1.566-2.167c0.534-0.634,1.038-1.292,1.497-1.958c0.441-0.642,0.817-1.334,1.115-2.059c0.288-0.698,0.433-1.501,0.433-2.389c0-1.258-0.369-2.278-1.127-3.118c-0.735-0.813-1.862-1.226-3.351-1.226c-0.973,0-1.79,0.071-2.426,0.212c-0.63,0.141-1.158,0.315-1.566,0.52c-0.39,0.195-0.702,0.421-0.928,0.672c-0.065,0.073-0.129,0.146-0.191,0.219c0.482,0.159,0.911,0.437,1.282,0.83c0.582,0.616,0.876,1.403,0.876,2.339c0,1.009-0.301,1.898-0.894,2.644c-0.62,0.78-1.62,1.175-2.97,1.175c-1.104,0-2.008-0.397-2.688-1.182c-0.661-0.764-0.997-1.726-0.997-2.861c0-0.894,0.184-1.843,0.545-2.82c0.369-0.997,1.015-1.929,1.918-2.771c0.895-0.833,2.088-1.532,3.545-2.076c1.453-0.542,3.304-0.817,5.501-0.817c1.513,0,2.957,0.116,4.292,0.344c1.365,0.232,2.583,0.661,3.617,1.273c1.054,0.624,1.896,1.468,2.504,2.51c0.61,1.045,0.919,2.36,0.919,3.907c0,1.417-0.258,2.647-0.767,3.656c-0.496,0.983-1.134,1.872-1.896,2.639c-0.743,0.748-1.558,1.445-2.424,2.072c-0.826,0.598-1.631,1.25-2.392,1.938c-0.737,0.668-1.377,1.439-1.903,2.292c-0.51,0.828-0.826,1.842-0.937,3.013C51.079,56.201,50.864,56.398,50.606,56.398z M48.235,55.398h1.926c0.16-1.138,0.504-2.143,1.028-2.992c0.575-0.932,1.276-1.775,2.083-2.507c0.788-0.713,1.622-1.388,2.477-2.008c0.822-0.595,1.596-1.256,2.3-1.965c0.688-0.693,1.264-1.495,1.713-2.385c0.438-0.868,0.66-1.947,0.66-3.206c0-1.368-0.263-2.513-0.783-3.403c-0.521-0.893-1.245-1.618-2.15-2.154c-0.929-0.55-2.031-0.936-3.275-1.148c-1.279-0.219-2.667-0.33-4.123-0.33c-2.078,0-3.811,0.253-5.152,0.753c-1.333,0.498-2.415,1.128-3.213,1.871c-0.789,0.735-1.348,1.538-1.663,2.387c-0.32,0.866-0.483,1.698-0.483,2.473c0,0.9,0.246,1.622,0.752,2.206c0.488,0.563,1.12,0.837,1.932,0.837c1.045,0,1.761-0.261,2.188-0.798c0.455-0.572,0.676-1.233,0.676-2.021c0-0.682-0.198-1.222-0.604-1.652c-0.404-0.429-0.886-0.649-1.474-0.674c-0.183-0.008-0.346-0.114-0.427-0.278s-0.066-0.358,0.039-0.508c0.218-0.312,0.473-0.63,0.756-0.945c0.31-0.344,0.722-0.646,1.224-0.897c0.481-0.241,1.086-0.443,1.797-0.602c0.708-0.157,1.597-0.236,2.643-0.236c1.783,0,3.161,0.523,4.093,1.555c0.919,1.018,1.385,2.292,1.385,3.789c0,1.019-0.171,1.951-0.508,2.77c-0.326,0.79-0.735,1.545-1.216,2.246c-0.478,0.692-1.001,1.376-1.555,2.035c-0.534,0.636-1.033,1.326-1.482,2.05c-0.44,0.709-0.816,1.513-1.119,2.388c-0.294,0.856-0.443,1.851-0.443,2.955V55.398z"/></svg>