<svg xmlns="http://www.w3.org/2000/svg"  viewBox="0 0 100 100" width="100px" height="100px"><circle cx="50" cy="32" r="22" fill="#a3a3cd"/><circle cx="50" cy="32" r="17.5" fill="#78cdd4"/><path fill="#fcba7f" d="M55,65c0-2.761-2.239-5-5-5s-5,2.239-5,5c0,2.171,0,17.826,0,20c0,2.761,2.239,5,5,5s5-2.239,5-5	C55,82.826,55,67.171,55,65z"/><path fill="#fed5b3" d="M55,66c0-0.444,0-0.788,0-1c0-2.761-2.239-5-5-5s-5,2.239-5,5c0,0.212,0,0.556,0,1H55z"/><path fill="#1f212b" d="M50,55c-12.683,0-23-10.317-23-23S37.317,9,50,9s23,10.317,23,23S62.683,55,50,55z M50,11	c-11.579,0-21,9.421-21,21s9.421,21,21,21s21-9.421,21-21S61.579,11,50,11z"/><path fill="#1f212b" d="M50,50c-9.925,0-18-8.075-18-18s8.075-18,18-18s18,8.075,18,18S59.925,50,50,50z M50,15	c-9.374,0-17,7.626-17,17s7.626,17,17,17s17-7.626,17-17S59.374,15,50,15z"/><rect width="2" height="6" x="49" y="54" fill="#1f212b"/><path fill="#1f212b" d="M50,91c-3.309,0-6-2.691-6-6V65c0-3.309,2.691-6,6-6s6,2.691,6,6v20C56,88.309,53.309,91,50,91z M50,61c-2.206,0-4,1.794-4,4v20c0,2.206,1.794,4,4,4s4-1.794,4-4V65C54,62.794,52.206,61,50,61z"/><path fill="#1f212b" d="M54.5,66h-7c-0.276,0-0.5-0.224-0.5-0.5s0.224-0.5,0.5-0.5h7c0.276,0,0.5,0.224,0.5,0.5	S54.776,66,54.5,66z"/><path fill="#1f212b" d="M47.5,80c-0.276,0-0.5-0.224-0.5-0.5v-11c0-0.276,0.224-0.5,0.5-0.5s0.5,0.224,0.5,0.5v11	C48,79.776,47.776,80,47.5,80z"/><path fill="#1f212b" d="M47.5,84c-0.276,0-0.5-0.224-0.5-0.5v-2c0-0.276,0.224-0.5,0.5-0.5s0.5,0.224,0.5,0.5v2	C48,83.776,47.776,84,47.5,84z"/><path fill="#1f212b" d="M43.002,38c-0.256,0-0.512-0.098-0.707-0.293l-5.001-5c-0.188-0.188-0.293-0.441-0.293-0.707	s0.105-0.52,0.293-0.707l5.001-5c0.391-0.391,1.023-0.391,1.414,0s0.391,1.023,0,1.414L39.415,32l4.294,4.293	c0.391,0.391,0.391,1.023,0,1.414C43.514,37.902,43.258,38,43.002,38z"/><path fill="#1f212b" d="M47.001,42c-0.121,0-0.243-0.021-0.362-0.068c-0.515-0.2-0.77-0.779-0.569-1.294l7-18	c0.199-0.516,0.78-0.771,1.294-0.569c0.515,0.2,0.77,0.779,0.569,1.294l-7,18C47.779,41.758,47.401,42,47.001,42z"/><path fill="#1f212b" d="M57.001,38c-0.256,0-0.512-0.098-0.707-0.293c-0.391-0.391-0.391-1.023,0-1.414L60.585,32	l-4.291-4.293c-0.391-0.391-0.391-1.023,0-1.414s1.023-0.391,1.414,0l4.998,5c0.391,0.391,0.391,1.023,0,1.414l-4.998,5	C57.513,37.902,57.257,38,57.001,38z"/></svg>