<svg xmlns="http://www.w3.org/2000/svg"  viewBox="0 0 100 100" width="100px" height="100px"><path fill="#ceccbe" d="M81,78V34c0-1.105-0.895-2-2-2H51c-1.105,0-2-0.895-2-2v-2c0-3.314-2.686-6-6-6H16 c-3.314,0-6,2.686-6,6v50H81z"/><path fill="#fefdef" d="M10.117,77.633L20,39h71L80.673,79.367C80.277,80.916,78.882,82,77.283,82H13.508 C11.223,82,9.551,79.846,10.117,77.633z"/><path fill="#1f212b" d="M10,79c-0.553,0-1-0.447-1-1V28c0-3.859,3.141-7,7-7h27c3.859,0,7,3.141,7,7v2c0,0.552,0.448,1,1,1 h28c1.654,0,3,1.346,3,3v5c0,0.553-0.447,1-1,1s-1-0.447-1-1v-5c0-0.552-0.448-1-1-1H51c-1.654,0-3-1.346-3-3v-2 c0-2.757-2.243-5-5-5H16c-2.757,0-5,2.243-5,5v50C11,78.553,10.553,79,10,79z"/><path fill="#1f212b" d="M77.282,83H13.508c-1.4,0-2.695-0.635-3.555-1.74c-0.858-1.106-1.151-2.519-0.805-3.875 l9.883-38.633C19.145,38.31,19.543,38,20,38h71c0.309,0,0.601,0.143,0.79,0.387s0.255,0.562,0.179,0.861L81.643,79.615 C81.133,81.608,79.34,83,77.282,83z M20.776,40l-9.69,37.881l0,0c-0.192,0.753-0.029,1.538,0.447,2.152 C12.011,80.647,12.73,81,13.508,81h63.774c1.143,0,2.14-0.773,2.423-1.881L89.712,40H20.776z M10.117,77.633h0.01H10.117z"/><path fill="#1f212b" d="M31.5,29h-17c-0.276,0-0.5-0.224-0.5-0.5s0.224-0.5,0.5-0.5h17c0.276,0,0.5,0.224,0.5,0.5 S31.776,29,31.5,29z"/><g><path fill="#fef6aa" d="M50.5,46.5c-9.389,0-17,5.596-17,12.5c0,3.817,2.333,7.228,6,9.521c-0.004,3.984-1,5.428-1,5.979 c0,0.552,0.448,1,1,1c3.648,0,7.286-2.655,8.992-4.095c0.66,0.057,1.327,0.095,2.008,0.095c9.389,0,17-5.596,17-12.5 S59.889,46.5,50.5,46.5z"/><path d="M39.5,76c-0.827,0-1.5-0.673-1.5-1.5c0-0.232,0.082-0.474,0.207-0.84c0.267-0.784,0.757-2.222,0.791-4.866 C35.182,66.322,33,62.766,33,59c0-7.168,7.851-13,17.5-13S68,51.832,68,59s-7.851,13-17.5,13c-0.576,0-1.182-0.026-1.845-0.079 C46.745,73.505,43.156,76,39.5,76z M50.5,47C41.402,47,34,52.383,34,59c0,3.491,2.102,6.807,5.765,9.097 C39.911,68.188,40,68.349,40,68.521c-0.003,2.984-0.552,4.596-0.847,5.461c-0.071,0.209-0.151,0.445-0.153,0.519 C39,74.775,39.225,75,39.5,75c3.442,0,6.909-2.491,8.67-3.977c0.103-0.087,0.233-0.126,0.366-0.116C49.251,70.97,49.894,71,50.5,71 C59.598,71,67,65.617,67,59S59.598,47,50.5,47z"/><path d="M52.5,56h-10c-0.276,0-0.5-0.224-0.5-0.5s0.224-0.5,0.5-0.5h10c0.276,0,0.5,0.224,0.5,0.5S52.776,56,52.5,56z"/><path d="M58.5,56h-4c-0.276,0-0.5-0.224-0.5-0.5s0.224-0.5,0.5-0.5h4c0.276,0,0.5,0.224,0.5,0.5S58.776,56,58.5,56z"/><path d="M45.5,59h-6c-0.276,0-0.5-0.224-0.5-0.5s0.224-0.5,0.5-0.5h6c0.276,0,0.5,0.224,0.5,0.5S45.776,59,45.5,59z"/><path d="M60.5,59h-13c-0.276,0-0.5-0.224-0.5-0.5s0.224-0.5,0.5-0.5h13c0.276,0,0.5,0.224,0.5,0.5S60.776,59,60.5,59z"/><path d="M55.5,62h-16c-0.276,0-0.5-0.224-0.5-0.5s0.224-0.5,0.5-0.5h16c0.276,0,0.5,0.224,0.5,0.5S55.776,62,55.5,62z"/><path d="M61.5,62h-4c-0.276,0-0.5-0.224-0.5-0.5s0.224-0.5,0.5-0.5h4c0.276,0,0.5,0.224,0.5,0.5S61.776,62,61.5,62z"/></g></svg>