<svg xmlns="http://www.w3.org/2000/svg"  viewBox="0 0 100 100" width="100px" height="100px"><path fill="#1f212b" d="M50.5,86.042c-2.32,0-4.64-0.607-6.709-1.822L21.494,71.128C21.188,70.948,21,70.62,21,70.266V45.929	c0-4.831,2.629-9.278,6.861-11.607l22.157-12.197c0.301-0.166,0.664-0.166,0.965,0L73.14,34.321C77.371,36.65,80,41.098,80,45.929	v24.337c0,0.354-0.188,0.683-0.494,0.862L57.209,84.22C55.14,85.435,52.82,86.042,50.5,86.042z M23,69.693l21.804,12.802	c3.514,2.063,7.879,2.063,11.393,0L78,69.693V45.929c0-4.102-2.232-7.878-5.825-9.855L50.5,24.142L28.825,36.073	C25.232,38.051,23,41.827,23,45.929V69.693z"/><polygon fill="#9dc4e8" points="64,22 64,37.5 51,44.72 50.5,45 50,44.72 37,37.5 37,22 50.5,15"/><path fill="#78a1d1" d="M51,29.5v15.22L50.5,45L37,37.5V22l0.53-0.28l12.97,7.21l0.24,0.13C50.9,29.15,51,29.32,51,29.5z"/><path fill="#c6dff1" d="M64,22v15.5L50.5,45L50,44.72V29.5c0-0.18,0.1-0.35,0.26-0.44l0.24-0.13l12.97-7.21L64,22z"/><polygon fill="#9dc4e8" points="89,58 89,73.5 76,80.72 75.5,81 75,80.72 62,73.5 62,58 75.5,51"/><path fill="#78a1d1" d="M76,65.5v15.22L75.5,81L62,73.5V58l0.53-0.28l12.97,7.21l0.24,0.13C75.9,65.15,76,65.32,76,65.5z"/><path fill="#c6dff1" d="M89,73.5V58l-0.53-0.28L75.5,64.93l-0.24,0.13C75.1,65.15,75,65.32,75,65.5v15.22L75.5,81L89,73.5z"/><polygon fill="#9dc4e8" points="39,58 39,73.5 25.5,81 12,73.5 12,58 25.5,51"/><path fill="#78a1d1" d="M26,65.5v15.22L25.5,81L12,73.5V58l0.53-0.28l12.97,7.21l0.24,0.13C25.9,65.15,26,65.32,26,65.5z"/><path fill="#c6dff1" d="M39,58v15.5L25.5,81L25,80.72V65.5c0-0.18,0.1-0.35,0.26-0.44l0.24-0.13l12.97-7.21L39,58z"/><path fill="#1f212b" d="M50.5,46c-0.167,0-0.334-0.042-0.486-0.126l-13.5-7.5C36.197,38.198,36,37.863,36,37.5V22	c0-0.373,0.208-0.716,0.54-0.888l13.5-7c0.289-0.15,0.632-0.15,0.921,0l13.5,7C64.792,21.284,65,21.627,65,22v15.5	c0,0.363-0.197,0.698-0.514,0.874l-13.5,7.5C50.834,45.958,50.667,46,50.5,46z M38,36.911l12.5,6.945L63,36.911V22.608l-12.5-6.482	L38,22.608V36.911z"/><rect width="1.001" height="15.443" x="43.25" y="18.028" fill="#1f212b" transform="rotate(-60.948 43.747 25.75)"/><path fill="#1f212b" d="M25.5,82c-0.167,0-0.334-0.042-0.486-0.126l-13.5-7.5C11.197,74.198,11,73.863,11,73.5V58	c0-0.373,0.208-0.716,0.54-0.888l13.5-7c0.289-0.15,0.632-0.15,0.921,0l13.5,7C39.792,57.284,40,57.627,40,58v15.5	c0,0.363-0.197,0.698-0.514,0.874l-13.5,7.5C25.834,81.958,25.667,82,25.5,82z M13,72.911l12.5,6.945L38,72.911V58.608l-12.5-6.482	L13,58.608V72.911z"/><path fill="#1f212b" d="M50.5,32c-0.276,0-0.5-0.224-0.5-0.5v-2c0-0.182,0.099-0.349,0.257-0.438l13.5-7.5	c0.24-0.132,0.546-0.047,0.68,0.194c0.134,0.242,0.047,0.546-0.194,0.681L51,29.794V31.5C51,31.776,50.776,32,50.5,32z"/><path fill="#1f212b" d="M25.5,66c-0.083,0-0.167-0.021-0.243-0.063l-13.5-7.5l0.485-0.875L25.5,64.928l13.257-7.365	l0.485,0.875l-13.5,7.5C25.667,65.979,25.583,66,25.5,66z"/><rect width="1" height="16" x="25" y="65.5" fill="#1f212b"/><path fill="#1f212b" d="M75.5,82c-0.167,0-0.334-0.042-0.486-0.126l-13.5-7.5C61.197,74.198,61,73.863,61,73.5V58	c0-0.373,0.208-0.716,0.54-0.888l13.5-7c0.289-0.15,0.632-0.15,0.921,0l13.5,7C89.792,57.284,90,57.627,90,58v15.5	c0,0.363-0.197,0.698-0.514,0.874l-13.5,7.5C75.834,81.958,75.667,82,75.5,82z M63,72.911l12.5,6.945L88,72.911V58.608l-12.5-6.482	L63,58.608V72.911z"/><rect width="1" height="16" x="75" y="65.5" fill="#1f212b"/><path fill="#1f212b" d="M50.5,36c-0.276,0-0.5-0.224-0.5-0.5v-1c0-0.276,0.224-0.5,0.5-0.5s0.5,0.224,0.5,0.5v1	C51,35.776,50.776,36,50.5,36z"/><path fill="#1f212b" d="M50.5,45c-0.276,0-0.5-0.224-0.5-0.5v-7c0-0.276,0.224-0.5,0.5-0.5s0.5,0.224,0.5,0.5v7	C51,44.776,50.776,45,50.5,45z"/><path fill="#1f212b" d="M86.5,59.889c-0.176,0-0.346-0.093-0.438-0.257c-0.134-0.242-0.047-0.546,0.194-0.681l2.5-1.389	c0.241-0.132,0.546-0.046,0.68,0.194c0.134,0.242,0.047,0.546-0.194,0.681l-2.5,1.389C86.666,59.868,86.583,59.889,86.5,59.889z"/><path fill="#1f212b" d="M83.5,61.556c-0.176,0-0.346-0.093-0.438-0.257c-0.134-0.241-0.047-0.546,0.194-0.681l1-0.556	c0.241-0.132,0.545-0.047,0.68,0.194s0.047,0.546-0.194,0.681l-1,0.556C83.666,61.535,83.583,61.556,83.5,61.556z"/><path fill="#1f212b" d="M75.5,66c-0.083,0-0.167-0.021-0.243-0.063l-13.5-7.5c-0.242-0.135-0.329-0.438-0.194-0.681	c0.134-0.24,0.438-0.326,0.68-0.194L75.5,64.928l4.757-2.643c0.24-0.133,0.546-0.046,0.68,0.194	c0.134,0.242,0.047,0.546-0.194,0.681l-5,2.777C75.667,65.979,75.583,66,75.5,66z"/></svg>