<svg xmlns="http://www.w3.org/2000/svg"  viewBox="0 0 100 100" width="100px" height="100px"><path fill="#fef6aa" d="M82,38v-6c0-1.105-0.895-2-2-2H53c-1.105,0-2-0.895-2-2v-2c0-3.314-2.686-6-6-6H19	c-3.314,0-6,2.686-6,6v51c0,1.657,1.343,3,3,3h68c1.657,0,3-1.343,3-3V38H82z"/><path fill="#f9e65c" d="M84,80H16c1.657,0,3-1.343,3-3V38h68v39C87,78.657,85.657,80,84,80z"/><path fill="#1f212b" d="M16,81v-2c1.103,0,2-0.897,2-2V38c0-0.553,0.447-1,1-1h68v2H20v38C20,79.206,18.206,81,16,81z"/><path fill="#1f212b" d="M84,81H16c-2.206,0-4-1.794-4-4V26c0-3.859,3.141-7,7-7h26c3.859,0,7,3.141,7,7v2	c0,0.552,0.448,1,1,1h27c1.654,0,3,1.346,3,3v5h4c0.553,0,1,0.447,1,1v39C88,79.206,86.206,81,84,81z M19,21c-2.757,0-5,2.243-5,5	v51c0,1.103,0.897,2,2,2h68c1.103,0,2-0.897,2-2V39h-4c-0.553,0-1-0.447-1-1v-6c0-0.552-0.448-1-1-1H53c-1.654,0-3-1.346-3-3v-2	c0-2.757-2.243-5-5-5H19z"/><path fill="#1f212b" d="M45.5,30.5c-0.276,0-0.5-0.224-0.5-0.5v-0.5c0-1.93-1.57-3.5-3.5-3.5c-0.276,0-0.5-0.224-0.5-0.5	s0.224-0.5,0.5-0.5c2.481,0,4.5,2.019,4.5,4.5V30C46,30.276,45.776,30.5,45.5,30.5z"/><path fill="#1f212b" d="M18.5,34c-0.276,0-0.5-0.224-0.5-0.5v-4c0-2.481,2.019-4.5,4.5-4.5h16c0.276,0,0.5,0.224,0.5,0.5	S38.776,26,38.5,26h-16c-1.93,0-3.5,1.57-3.5,3.5v4C19,33.776,18.776,34,18.5,34z"/><path fill="#1f212b" d="M37,65.742c0-0.378,0.145-0.663,0.436-0.853l9.433-6.37l-9.433-6.41	C37.145,51.921,37,51.636,37,51.258c0-0.325,0.132-0.616,0.397-0.872C37.66,50.128,37.937,50,38.229,50	c0.184,0,0.343,0.054,0.476,0.162l10.661,7.221C49.789,57.682,50,58.06,50,58.52s-0.211,0.826-0.634,1.096l-10.661,7.221	C38.571,66.946,38.413,67,38.229,67c-0.291,0-0.568-0.128-0.832-0.385C37.132,66.358,37,66.066,37,65.742z"/><path fill="#1f212b" d="M54,65.884c0-0.347,0.095-0.632,0.283-0.857c0.19-0.226,0.432-0.339,0.731-0.339h12.972	c0.27,0,0.506,0.113,0.71,0.339C68.898,65.253,69,65.538,69,65.884c0,0.319-0.102,0.583-0.304,0.797	C68.493,66.893,68.256,67,67.986,67H55.014C54.339,67,54,66.628,54,65.884z"/></svg>