<svg xmlns="http://www.w3.org/2000/svg"  viewBox="0 0 100 100" width="100px" height="100px"><polyline fill="#f27c7c" points="35.5,86.5 35.5,92.5 40,90.5 44.5,92.5 44.5,86.5"/><path fill="#fefdef" d="M77,24c0,0-2-1.518-2-5c0-3.5,2-5,2-5H28c-2.761,0-5,2.239-5,5s2.239,5,5,5H77z"/><path fill="#d1dae7" d="M71,86H28c-2.761,0-5-2.239-5-5V19c0,2.761,2.239,5,5,5h49v56C77,83.314,74.314,86,71,86z"/><path fill="#adbed7" d="M31,24h-3c-2.761,0-5-2.239-5-5v62c0,2.761,2.239,5,5,5h3V24z"/><circle cx="40" cy="39" r="3.5" fill="#a0d2a1"/><circle cx="40" cy="55" r="3.5" fill="#a0d2a1"/><circle cx="40" cy="71" r="3.5" fill="#a0d2a1"/><g><path fill="#1f212b" d="M44.5,93c-0.069,0-0.138-0.015-0.203-0.043L40,91.047l-4.297,1.91 c-0.156,0.066-0.335,0.055-0.476-0.038C35.086,92.827,35,92.669,35,92.5v-6c0-0.276,0.224-0.5,0.5-0.5s0.5,0.224,0.5,0.5v5.23 l3.797-1.688c0.129-0.057,0.277-0.057,0.406,0L44,91.73V86.5c0-0.276,0.224-0.5,0.5-0.5s0.5,0.224,0.5,0.5v6 c0,0.169-0.086,0.327-0.228,0.419C44.69,92.973,44.596,93,44.5,93z"/><path fill="#1f212b" d="M77,25H28c-3.309,0-6-2.691-6-6s2.691-6,6-6h49c0.431,0,0.812,0.275,0.949,0.684 c0.136,0.408-0.004,0.858-0.349,1.116C77.543,14.845,76,16.092,76,19c0,2.896,1.547,4.157,1.613,4.21 c0.333,0.265,0.467,0.714,0.327,1.116C77.8,24.728,77.425,25,77,25z M28,15c-2.206,0-4,1.794-4,4s1.794,4,4,4h46.96 C74.45,22.062,74,20.741,74,19c0-1.744,0.448-3.063,0.957-4H28z"/><path fill="#1f212b" d="M71,87H28c-3.309,0-6-2.691-6-6V19c0-0.553,0.448-1,1-1s1,0.447,1,1c0,2.206,1.794,4,4,4h49 c0.552,0,1,0.447,1,1v56C78,83.859,74.86,87,71,87z M24,23.469V81c0,2.206,1.794,4,4,4h43c2.757,0,5-2.243,5-5V25H28 C26.465,25,25.062,24.42,24,23.469z"/><path fill="#1f212b" d="M71,87H28c-3.309,0-6-2.691-6-6V19c0-0.553,0.448-1,1-1s1,0.447,1,1c0,2.206,1.794,4,4,4h49 c0.552,0,1,0.447,1,1v56C78,83.859,74.86,87,71,87z M24,23.469V81c0,2.206,1.794,4,4,4h43c2.757,0,5-2.243,5-5V25H28 C26.465,25,25.062,24.42,24,23.469z"/><path fill="#1f212b" d="M30.5,74c-0.276,0-0.5-0.224-0.5-0.5v-49c0-0.276,0.224-0.5,0.5-0.5s0.5,0.224,0.5,0.5v49 C31,73.776,30.776,74,30.5,74z"/><path fill="#1f212b" d="M30.5,82c-0.276,0-0.5-0.224-0.5-0.5v-5c0-0.276,0.224-0.5,0.5-0.5s0.5,0.224,0.5,0.5v5 C31,81.776,30.776,82,30.5,82z"/><path fill="#1f212b" d="M74.5,18h-46c-0.276,0-0.5-0.224-0.5-0.5s0.224-0.5,0.5-0.5h46c0.276,0,0.5,0.224,0.5,0.5 S74.776,18,74.5,18z"/><path fill="#1f212b" d="M74.5,21h-40c-0.276,0-0.5-0.224-0.5-0.5s0.224-0.5,0.5-0.5h40c0.276,0,0.5,0.224,0.5,0.5 S74.776,21,74.5,21z"/><path fill="#1f212b" d="M40,43c-2.206,0-4-1.794-4-4s1.794-4,4-4s4,1.794,4,4S42.206,43,40,43z M40,36c-1.654,0-3,1.346-3,3 s1.346,3,3,3s3-1.346,3-3S41.654,36,40,36z"/><path fill="#1f212b" d="M40,59c-2.206,0-4-1.794-4-4s1.794-4,4-4s4,1.794,4,4S42.206,59,40,59z M40,52c-1.654,0-3,1.346-3,3 s1.346,3,3,3s3-1.346,3-3S41.654,52,40,52z"/><path fill="#1f212b" d="M40,75c-2.206,0-4-1.794-4-4s1.794-4,4-4s4,1.794,4,4S42.206,75,40,75z M40,68c-1.654,0-3,1.346-3,3 s1.346,3,3,3s3-1.346,3-3S41.654,68,40,68z"/></g></svg>